/* XPM */
static char * Macminigun_xpm[] = {
"129 77 27 1",
" 	c None",
".	c #1EF6DF",
"+	c #525252",
"@	c #7B7B7B",
"#	c #D5D5D5",
"$	c #DEDEDE",
"%	c #5A5A5A",
"&	c #8B8B8B",
"*	c #C5C5C5",
"=	c #626262",
"-	c #737373",
";	c #414141",
">	c #4A4A4A",
",	c #393939",
"'	c #292929",
")	c #202020",
"!	c #181818",
"~	c #313131",
"{	c #ACACAC",
"]	c #B4B4B4",
"^	c #9C9C9C",
"/	c #EEDECD",
"(	c #FFEEDE",
"_	c #FFFFFF",
":	c #BDBDBD",
"<	c #EEEEEE",
"[	c #000008",
".................................................................................................................................",
".................................................................................................................................",
".................................................................................................................................",
".................................................................................................................................",
"......................................................++@@..##$$$$$$##..@@++.....................................................",
"......................................................++@@..##$$$$$$##..@@++.....................................................",
"..................................................%%%%@@&&..**##**##**..&&@@%%%%.................................................",
"..................................................%%%%@@&&..**##**##**..&&@@%%%%.................................................",
"..............................................%%++==--------------------------==++%%.............................................",
"..............................................%%++==--------------------------==++%%.............................................",
"..........................................%%++++%%++;;;;>>%%%%%%%%%%%%%%>>;;;;++%%++++%%.........................................",
"..........................................%%++++%%++;;;;>>%%%%%%%%%%%%%%>>;;;;++%%++++%%.........................................",
"........................................++++>>>>>>,,'')),,%%==========%%,,))'',,>>>>>>++++.......................................",
"........................................++++>>>>>>,,'')),,%%==========%%,,))'',,>>>>>>++++.......................................",
"......................................%%%%>>;;;;,,''))!!~~==@@@@@@@@@@==~~!!))'',,;;;;>>%%%%.....................................",
"......................................%%%%>>;;;;,,''))!!~~==@@@@@@@@@@==~~!!))'',,;;;;>>%%%%.....................................",
"....................................%%%%++++%%++~~))!!!!,,@@{{]]]]]]{{@@,,!!!!))~~++%%++++%%%%...................................",
"....................................%%%%++++%%++~~))!!!!,,@@{{]]]]]]{{@@,,!!!!))~~++%%++++%%%%...................................",
"....................................%%==++==@@&&>>))!!))++^^**##$$##**^^++))!!))>>&&@@==++==%%...................................",
"....................................%%==++==@@&&>>))!!))++^^**##$$##**^^++))!!))>>&&@@==++==%%...................................",
"....................................%%%%==@@{{]]%%''))~~--]]//((__((//]]--~~))''%%]]{{@@==%%%%...................................",
"....................................%%%%==@@{{]]%%''))~~--]]//((__((//]]--~~))''%%]]{{@@==%%%%...................................",
"......................................%%@@^^****==''));;@@:://((__((//::@@;;))''==****^^@@%%.....................................",
"......................................%%@@^^****==''));;@@:://((__((//::@@;;))''==****^^@@%%.....................................",
"......................................==^^]]$$$$==))))++&&:://((__((//::&&++))))==$$$$]]^^==.....................................",
"......................................==^^]]$$$$==))))++&&:://((__((//::&&++))))==$$$$]]^^==.....................................",
"......................................@@]]$$__$$@@;;;;@@{{**//<<__<<//**{{@@;;;;@@$$__$$]]@@.....................................",
"......................................@@]]$$__$$@@;;;;@@{{**//<<__<<//**{{@@;;;;@@$$__$$]]@@.....................................",
"......................................&&::******{{{{{{$$<<______________<<$${{{{{{******::&&.....................................",
"......................................&&::******{{{{{{$$<<______________<<$${{{{{{******::&&.....................................",
"....................................==&&^^^^^^^^&&&&&&^^{{^^^^^^^^^^^^^^{{^^&&&&&&^^^^^^^^&&==...................................",
"....................................==&&^^^^^^^^&&&&&&^^{{^^^^^^^^^^^^^^{{^^&&&&&&^^^^^^^^&&==...................................",
"..................................%%==----======++>>>>++%%==----------==%%++>>>>++======----==%%.................................",
"..................................%%==----======++>>>>++%%==----------==%%++>>>>++======----==%%.................................",
"................................==++>>;;;;'''''',,,,;;==&&{{$$<<<<<<$${{&&==;;,,,,'''''';;;;>>++==...............................",
"................................==++>>;;;;'''''',,,,;;==&&{{$$<<<<<<$${{&&==;;,,,,'''''';;;;>>++==...............................",
"..............................%%++;;,,,,~~))!!!!~~;;%%&&]]##__________##]]&&%%;;~~!!!!))~~,,,,;;++%%.............................",
"..............................%%++;;,,,,~~))!!!!~~;;%%&&]]##__________##]]&&%%;;~~!!!!))~~,,,,;;++%%.............................",
"............................>>;;,,;;%%%%;;))!!))~~>>@@&&**//__________//**&&@@>>~~))!!));;%%%%;;,,;;>>...........................",
"............................>>;;,,;;%%%%;;))!!))~~>>@@&&**//__________//**&&@@>>~~))!!));;%%%%;;,,;;>>...........................",
"..........................;;,,,,>>==@@&&++''!!))~~++@@^^**//__________//**^^@@++~~))!!''++&&@@==>>,,,,;;.........................",
"..........................;;,,,,>>==@@&&++''!!))~~++@@^^**//__________//**^^@@++~~))!!''++&&@@==>>,,,,;;.........................",
"........................;;,,~~;;==@@&&^^>>))!!))''++@@{{**//__________//**{{@@++''))!!))>>^^&&@@==;;~~,,;;.......................",
"........................;;,,~~;;==@@&&^^>>))!!))''++@@{{**//__________//**{{@@++''))!!))>>^^&&@@==;;~~,,;;.......................",
"......................>>,,~~~~%%--@@&&&&;;))!!))''++@@{{**//__________//**{{@@++''))!!));;&&&&@@--%%~~~~,,>>.....................",
"......................>>,,~~~~%%--@@&&&&;;))!!))''++@@{{**//__________//**{{@@++''))!!));;&&&&@@--%%~~~~,,>>.....................",
"......................~~~~'';;%%--@@^^&&;;))!!))~~++@@{{**//<<______<<//**{{@@++~~))!!));;&&^^@@--%%;;''~~~~.....................",
"......................~~~~'';;%%--@@^^&&;;))!!))~~++@@{{**//<<______<<//**{{@@++~~))!!));;&&^^@@--%%;;''~~~~.....................",
"......................~~'''',,%%--@@&&@@========--@@&&^^{{]]::******::]]{{^^&&@@--========@@&&@@--%%,,''''~~.....................",
"......................~~'''',,%%--@@&&@@========--@@&&^^{{]]::******::]]{{^^&&@@--========@@&&@@--%%,,''''~~.....................",
"......................~~)))),,==--@@------@@@@@@@@@@@@----------------------@@@@@@@@@@@@------@@--==,,))))~~.....................",
"......................~~)))),,==--@@------@@@@@@@@@@@@----------------------@@@@@@@@@@@@------@@--==,,))))~~.....................",
"......................~~))'';;>>%%%%%%%%>>,,'''''''''''''''''''''''''''''''''''''''''',,>>%%%%%%%%>>;;''))~~.....................",
"......................~~))'';;>>%%%%%%%%>>,,'''''''''''''''''''''''''''''''''''''''''',,>>%%%%%%%%>>;;''))~~.....................",
"......................~~;;>>%%%%++>>;;,,,,~~'''''''''''',,++~~))!!))~~++,,''''''''''''~~,,,,;;>>++%%%%>>;;~~.....................",
"......................~~;;>>%%%%++>>;;,,,,~~'''''''''''',,++~~))!!))~~++,,''''''''''''~~,,,,;;>>++%%%%>>;;~~.....................",
"....................%%>>%%%%%%++;;~~,,;;;;;;;;;;;;;;;;;;%%@@>>''))''>>@@%%;;;;;;;;;;;;;;;;;;,,~~;;++%%%%%%>>%%...................",
"....................%%>>%%%%%%++;;~~,,;;;;;;;;;;;;;;;;;;%%@@>>''))''>>@@%%;;;;;;;;;;;;;;;;;;,,~~;;++%%%%%%>>%%...................",
"..................%%%%%%++>>;;,,,,>>>>++++%%%%++++++++++==-->>''))''>>--==++++++++++%%%%++++>>>>,,,,;;>>++%%%%%%.................",
"..................%%%%%%++>>;;,,,,>>>>++++%%%%++++++++++==-->>''))''>>--==++++++++++%%%%++++>>>>,,,,;;>>++%%%%%%.................",
"................>>++++>>,,~~~~~~;;++++%%%%@@--%%%%%%%%%%==-->>''))''>>--==%%%%%%%%%%--@@%%%%++++;;~~~~~~,,>>++++>>...............",
"................>>++++>>,,~~~~~~;;++++%%%%@@--%%%%%%%%%%==-->>''))''>>--==%%%%%%%%%%--@@%%%%++++;;~~~~~~,,>>++++>>...............",
"..............++++>>,,~~''))~~,,>>++%%%%%%----%%%%%%%%++--&&>>''))''>>&&--++%%%%%%%%----%%%%%%++>>,,~~))''~~,,>>++++.............",
"..............++++>>,,~~''))~~,,>>++%%%%%%----%%%%%%%%++--&&>>''))''>>&&--++%%%%%%%%----%%%%%%++>>,,~~))''~~,,>>++++.............",
"............>>>>;;~~''))))''~~;;++++%%%%++>>>>++%%%%%%++&&]]++''))''++]]&&++%%%%%%++>>>>++%%%%++++;;~~''))))''~~;;>>>>...........",
"............>>>>;;~~''))))''~~;;++++%%%%++>>>>++%%%%%%++&&]]++''))''++]]&&++%%%%%%++>>>>++%%%%++++;;~~''))))''~~;;>>>>...........",
"..........>>;;~~''''''))))'',,;;;;;;;;;;;;,,,,;;;;;;;;,,==^^>>''))''>>^^==,,;;;;;;;;,,,,;;;;;;;;;;;;,,''))))''''''~~;;>>.........",
"..........>>;;~~''''''))))'',,;;;;;;;;;;;;,,,,;;;;;;;;,,==^^>>''))''>>^^==,,;;;;;;;;,,,,;;;;;;;;;;;;,,''))))''''''~~;;>>.........",
"........++,,''))))~~~~))))'',,;;;;;;;;;;;;;;;;;;;;;;;;,,%%@@>>''))''>>@@%%,,;;;;;;;;;;;;;;;;;;;;;;;;,,''))))~~~~))))'',,++.......",
"........++,,''))))~~~~))))'',,;;;;;;;;;;;;;;;;;;;;;;;;,,%%@@>>''))''>>@@%%,,;;;;;;;;;;;;;;;;;;;;;;;;,,''))))~~~~))))'',,++.......",
"......++>>''))))))))))))))''>>++%%++++%%%%++++++++++++++--@@>>''))''>>@@--++++++++++++++%%%%++++%%++>>''))))))))))))))''>>++.....",
"......++>>''))))))))))))))''>>++%%++++%%%%++++++++++++++--@@>>''))''>>@@--++++++++++++++%%%%++++%%++>>''))))))))))))))''>>++.....",
"......++~~''''))))))))))'';;>>++%%%%%%==@@==%%%%%%%%%%++--@@>>''))''>>@@--++%%%%%%%%%%==@@==%%%%%%++>>;;''))))))))))''''~~++.....",
"......++~~''''))))))))))'';;>>++%%%%%%==@@==%%%%%%%%%%++--@@>>''))''>>@@--++%%%%%%%%%%==@@==%%%%%%++>>;;''))))))))))''''~~++.....",
"......,,))~~''))''))))))~~;;>>++%%%%%%==--==%%%%%%%%%%++--&&>>''))''>>&&--++%%%%%%%%%%==--==%%%%%%++>>;;~~))))))''))''~~)),,.....",
"......,,))~~''))''))))))~~;;>>++%%%%%%==--==%%%%%%%%%%++--&&>>''))''>>&&--++%%%%%%%%%%==--==%%%%%%++>>;;~~))))))''))''~~)),,.....",
"[[[[[[[[[[[[[[[[[[[[[[[[[[[[[[[[[[[[[[[[[[[[[[[[[[[[[[[[[[[[[[[[[[[[[[[[[[[[[[[[[[[[[[[[[[[[[[[[[[[[[[[[[[[[[[[[[[[[[[[[[[[[[[[[["};
