/* XPM */
static char * wall_xpm[] = {
"64 64 256 2",
"  	c #000000",
". 	c #0000A8",
"+ 	c #00A800",
"@ 	c #00A8A8",
"# 	c #A80000",
"$ 	c #A800A8",
"% 	c #A85400",
"& 	c #A8A8A8",
"* 	c #545454",
"= 	c #5454FC",
"- 	c #54FC54",
"; 	c #54FCFC",
"> 	c #FC5454",
", 	c #FC54FC",
"' 	c #FCFC54",
") 	c #FCFCFC",
"! 	c #ECECEC",
"~ 	c #DCDCDC",
"{ 	c #D0D0D0",
"] 	c #C0C0C0",
"^ 	c #B4B4B4",
"/ 	c #A8A8A8",
"( 	c #989898",
"_ 	c #8C8C8C",
": 	c #7C7C7C",
"< 	c #707070",
"[ 	c #646464",
"} 	c #545454",
"| 	c #484848",
"1 	c #383838",
"2 	c #2C2C2C",
"3 	c #202020",
"4 	c #FC0000",
"5 	c #EC0000",
"6 	c #E00000",
"7 	c #D40000",
"8 	c #C80000",
"9 	c #BC0000",
"0 	c #B00000",
"a 	c #A40000",
"b 	c #980000",
"c 	c #880000",
"d 	c #7C0000",
"e 	c #700000",
"f 	c #640000",
"g 	c #580000",
"h 	c #4C0000",
"i 	c #400000",
"j 	c #FCD8D8",
"k 	c #FCB8B8",
"l 	c #FC9C9C",
"m 	c #FC7C7C",
"n 	c #FC5C5C",
"o 	c #FC4040",
"p 	c #FC2020",
"q 	c #FC0000",
"r 	c #FCA85C",
"s 	c #FC9840",
"t 	c #FC8820",
"u 	c #FC7800",
"v 	c #E46C00",
"w 	c #CC6000",
"x 	c #B45400",
"y 	c #9C4C00",
"z 	c #FCFCD8",
"A 	c #FCFCB8",
"B 	c #FCFC9C",
"C 	c #FCFC7C",
"D 	c #FCF85C",
"E 	c #FCF440",
"F 	c #FCF420",
"G 	c #FCF400",
"H 	c #E4D800",
"I 	c #CCC400",
"J 	c #B4AC00",
"K 	c #9C9C00",
"L 	c #848400",
"M 	c #706C00",
"N 	c #585400",
"O 	c #404000",
"P 	c #D0FC5C",
"Q 	c #C4FC40",
"R 	c #B4FC20",
"S 	c #A0FC00",
"T 	c #90E400",
"U 	c #80CC00",
"V 	c #74B400",
"W 	c #609C00",
"X 	c #D8FCD8",
"Y 	c #BCFCB8",
"Z 	c #9CFC9C",
"` 	c #80FC7C",
" .	c #60FC5C",
"..	c #40FC40",
"+.	c #20FC20",
"@.	c #00FC00",
"#.	c #00FC00",
"$.	c #00EC00",
"%.	c #00E000",
"&.	c #00D400",
"*.	c #04C800",
"=.	c #04BC00",
"-.	c #04B000",
";.	c #04A400",
">.	c #049800",
",.	c #048800",
"'.	c #047C00",
").	c #047000",
"!.	c #046400",
"~.	c #045800",
"{.	c #044C00",
"].	c #044000",
"^.	c #D8FCFC",
"/.	c #B8FCFC",
"(.	c #9CFCFC",
"_.	c #7CFCF8",
":.	c #5CFCFC",
"<.	c #40FCFC",
"[.	c #20FCFC",
"}.	c #00FCFC",
"|.	c #00E4E4",
"1.	c #00CCCC",
"2.	c #00B4B4",
"3.	c #009C9C",
"4.	c #008484",
"5.	c #007070",
"6.	c #005858",
"7.	c #004040",
"8.	c #5CBCFC",
"9.	c #40B0FC",
"0.	c #20A8FC",
"a.	c #009CFC",
"b.	c #008CE4",
"c.	c #007CCC",
"d.	c #006CB4",
"e.	c #005C9C",
"f.	c #D8D8FC",
"g.	c #B8BCFC",
"h.	c #9C9CFC",
"i.	c #7C80FC",
"j.	c #5C60FC",
"k.	c #4040FC",
"l.	c #2024FC",
"m.	c #0004FC",
"n.	c #0000FC",
"o.	c #0000EC",
"p.	c #0000E0",
"q.	c #0000D4",
"r.	c #0000C8",
"s.	c #0000BC",
"t.	c #0000B0",
"u.	c #0000A4",
"v.	c #000098",
"w.	c #000088",
"x.	c #00007C",
"y.	c #000070",
"z.	c #000064",
"A.	c #000058",
"B.	c #00004C",
"C.	c #000040",
"D.	c #282828",
"E.	c #FCE034",
"F.	c #FCD424",
"G.	c #FCCC18",
"H.	c #FCC008",
"I.	c #FCB400",
"J.	c #B420FC",
"K.	c #A800FC",
"L.	c #9800E4",
"M.	c #8000CC",
"N.	c #7400B4",
"O.	c #60009C",
"P.	c #500084",
"Q.	c #440070",
"R.	c #340058",
"S.	c #280040",
"T.	c #FCD8FC",
"U.	c #FCB8FC",
"V.	c #FC9CFC",
"W.	c #FC7CFC",
"X.	c #FC5CFC",
"Y.	c #FC40FC",
"Z.	c #FC20FC",
"`.	c #FC00FC",
" +	c #E000E4",
".+	c #C800CC",
"++	c #B400B4",
"@+	c #9C009C",
"#+	c #840084",
"$+	c #6C0070",
"%+	c #580058",
"&+	c #400040",
"*+	c #FCE8DC",
"=+	c #FCE0D0",
"-+	c #FCD8C4",
";+	c #FCD4BC",
">+	c #FCCCB0",
",+	c #FCC4A4",
"'+	c #FCBC9C",
")+	c #FCB890",
"!+	c #FCB080",
"~+	c #FCA470",
"{+	c #FC9C60",
"]+	c #F0945C",
"^+	c #E88C58",
"/+	c #DC8854",
"(+	c #D08050",
"_+	c #C87C4C",
":+	c #BC7848",
"<+	c #B47044",
"[+	c #A86840",
"}+	c #A0643C",
"|+	c #9C6038",
"1+	c #905C34",
"2+	c #885830",
"3+	c #80502C",
"4+	c #744C28",
"5+	c #6C4824",
"6+	c #5C4020",
"7+	c #543C1C",
"8+	c #483818",
"9+	c #403018",
"0+	c #382C14",
"a+	c #28200C",
"b+	c #600064",
"c+	c #006464",
"d+	c #006060",
"e+	c #00001C",
"f+	c #00002C",
"g+	c #302410",
"h+	c #480048",
"i+	c #500050",
"j+	c #000034",
"k+	c #1C1C1C",
"l+	c #4C4C4C",
"m+	c #5C5C5C",
"n+	c #404040",
"o+	c #303030",
"p+	c #343434",
"q+	c #D8F4F4",
"r+	c #B8E8E8",
"s+	c #9CDCDC",
"t+	c #74C8C8",
"u+	c #48C0C0",
"v+	c #20B4B4",
"w+	c #20B0B0",
"x+	c #00A4A4",
"y+	c #009898",
"z+	c #008C8C",
"A+	c #008484",
"B+	c #007C7C",
"C+	c #007878",
"D+	c #007474",
"E+	c #007070",
"F+	c #006C6C",
"G+	c #980088",
"*.*.*.*.*.*.*._ _ _ _ _ * k+p+p+_ -.*.*.*.*.*.-.-.'.k+p+_ _ _ _ -.*.*.*.*.*.*.-.*.*.* k+p+*.*._ *.*.*.*.*.-._ _ _ _ _ _ _ _ _ _ ",
"| -.-.-.>.>.>.[ [ m+[ * n+k+p+p+_ : -.-.-.>.>.>.'.~.k+p+_ [ |+< : -.-.: -.-.-.[ >.>.n+k+p+*.-.>.-.>.-.-.>._ _ : _ : _ : |+4+m+[ ",
"[ '._ '.'.>.'.[ m+m+[ [ n+k+p+p+_ _ >.-.-.>.>.'.'.n+k+p+_ : _ : _ -.>._ >.-.>.< >.'.n+k+p+_ >.'.>.>.: >.'.<+< [ |+[ [ [ [ [ [ < ",
"[ [ [ >.>.>.'.< [ : : < n+k+p+p+_ [+: -.>.>.>.'.).n+k+p+_ _ _ }+[ >.>._ >.>.'.[ '.).n+k+p+_ >._ >.>._ >.'.[ m+* 6+* 4+m+m+m+[ [ ",
"* m+< >.>.[ ).[ [ : : [ n+k+p+p+_ [ [ >.* >.'.).~.n+k+p+_ _ [ m+4+>.'.< '.>.).m+).~.n+k+p+_ '._ < '.[ >.).| 6+* l+* l+* | 6+l+* ",
"* m+< >.>.: ).: : : < [ n+k+p+p+_ 4+4+>.m+>.).~.8+n+k+p+_ < 4+4+m+[ '._ : '.).* * ~.n+k+p+_ [+: < '.< >.~.6+6+6+>.l+* * | l+* * ",
"[ < : >.'.[ * m+[ [ l+n+n+k+p+p+_ m+[ '.4+).8+~.1 n+k+p+_ -.[ [ [ : : : [ ).* m+m+~.n+k+p+_ < _ |+l+* '.6+8+8+6+'.[ 4+* * m+[ [ ",
"[ < : '.'.4+4+[ < l+1 7+n+k+p+p+_ |+: '.4+6+7+8+n+n+k+p+_ >.|+|+: : < m+| ~.l+m+m+l+n+k+p+_ [+_ [ | 1 ).1 p+8+'.).4+* * | l+m+[ ",
"[ [ [ [ ).m+[ < [ l+6+8+n+k+p+p+_ _ _ ).* * 6+6+7+n+k+p+_ >.|+[ [ m+l+* l+| * l+n+| n+k+p+_ : _ m+| 6+6+6+1 6+'.).[ l+6+| * m+m+",
"m+* * [ [ [ < [ [ * 6+8+n+k+p+p+_ _ [+[ m+< m+* l+n+k+p+_ '.[ * * m+* l+6+* m+| l+l+n+k+p+_ : : 4+| 6+6+| * * ).).4+6+6+* * m+[ ",
"n+n+n+n+n+n+n+n+n+n+n+n+n+k+p+p+_ _ [ [ 4+>.m+* * n+k+p+* n+n+n+n+n+n+n+n+n+n+n+n+n+n+k+p+* n+n+n+n+n+n+n+n+~.~.~.~.n+n+n+n+n+n+",
"k+k+k+k+k+k+k+k+k+k+k+k+k+k+p+p+_ : [ * 4+>.[ * l+n+k+p+k+k+k+k+k+k+k+k+k+k+k+k+k+k+k+k+p+k+k+k+k+k+k+k+k+k+k+k+k+k+k+k+k+k+k+k+",
"p+p+p+p+p+p+p+p+p+p+p+p+p+p+p+p+_ _ |+[ [ '.m+* | n+k+p+_ _ _ _ *.*.-.'.k+p+p+p+p+p+p+p+p+p+p+p+p+p+p+p+p+p+p+p+p+p+p+p+p+p+p+p+",
"p+_ _ _ -.*.*.*.*.*.*.*.*.* k+p+_ : : < < < m+| l+n+k+p+_ 1 8+n+>.-.>.~.k+p+_ _ *.*.*.*.-._ * k+p+-.*.*.*.*.*.*.*._ -.*.*.*.* k+",
"p+_ [ : _ -.-.>.>.>.>.'.'.n+k+p+_ : |+[ [ m+l+l+l+n+k+p+_ 8+8+6+'.>.>.~.k+p+_ [ m+-.-.>.* | n+k+p+_ -.-.-.-.-.-.2+[+_ >.>.-.n+k+",
"p+_ [ < |+>.>.'.>.'.'.'.'.n+k+p+_ < m+4+* l+| n+| n+k+p+_ 1 6+* '.6+'.n+k+p+_ 4+l+'.>.>.).6+n+k+p+_ >.>.'.'.'.>.[ _ : '.'.>.n+k+",
"p+_ : |+[ >.1+'.>.'.[ '.).n+k+p+_ m+* 4+l+* l+* l+n+k+p+_ 8+6+l+| l+).n+k+p+_ l+>.* >.'.).6+n+k+p+_ >.'.'.1+[ '.}+_ _ _ '.'.n+k+",
"p+_ _ [ 2+'.1+2+'.>.[ ).~.n+k+p+* n+n+n+n+n+n+n+n+n+k+p+* n+n+n+n+n+~.n+k+p+_ l+>.[ '.).~.8+n+k+p+_ >.'.'.m+[ '.< _ _ : [ '.~.k+",
"p+_ _ : < '.[ [ [ >.[ ~.| n+k+p+k+k+k+k+k+k+k+k+k+k+k+p+k+k+k+k+k+k+k+k+k+p+_ 4+'.< '.).~.6+n+k+p+_ _ '.'.6+l+'.: _ _ : [ '.~.k+",
"p+_ _ _ < < [ 4+l+).l+* l+n+k+p+p+p+p+p+p+p+p+p+p+p+p+p+p+p+p+p+p+p+p+p+p+p+_ 4+'.< l+~.6+l+n+k+p+_ _ '.'.6+4+)._ _ : [ | '.~.k+",
"p+_ < [ [ [ 4+| | * m+l+l+n+k+p+p+p+*.*.*.*.*.*.*._ *.-.>.-.-.-.>.>.-.* k+p+_ n+[ [ l+~.l+| n+k+p+_ [ >.'.* [ : : >.m+* 6+'.n+k+",
"p+_ [ * 4+* * l+* 4+[ l+| n+k+p+*.*.-.-.-.-.-.-.>.-.>.'.'.>.>.>.'.>.>.>.'.k+_ 7+[ 4+* | l+l+n+k+p+_ m+>.'.4+[ [ [ >.l+| n+).n+k+",
"p+* n+n+n+n+n+n+n+n+n+n+n+n+k+p+*.>.'.'.'.>.>.>.'.'.'.'.'.'.'.'.).).>.'.).k+_ 1 l+* l+l+| | n+k+p+_ * ).'.[ [ m+[ '.* l+n+n+n+k+",
"p+k+k+k+k+k+k+k+k+k+k+k+k+k+k+p+*.'.'.'.'.>.'.>.).: '.).'.'.'.'.).< ).).~.k+* n+n+n+n+n+n+n+n+k+p+_ 2+[ ).[ m+[ [ 4+* | 7+7+n+k+",
"p+p+p+p+p+p+p+p+p+p+p+p+p+p+p+p+*.'.'.'.'.>.).>.).[ '.* '.'.).'.).: : ).~.k+k+k+k+k+k+k+k+k+k+k+p+_ 2+[ < 4+* 4+[ * * n+l+l+n+k+",
"p+*.*.*.*.-.-._ _ _ _ _ _ * k+p+*.'.)._ [ >.).>.).| '.[ '.'.| '.).[ [ ).~.k+p+p+p+p+p+o+o+o+o+o+p+_ 4+2+m+* l+4+[ l+l+l+6+| n+k+",
"p+-.-.>.>.>.: : < m+[ l+6+n+k+p+*.'.: |+[ '.* >.).* '.>.'.'.* '.).: [ ~.n+k+p+_ -.-.*._ _ _ * k+p+_ 2+m+[ l+* * * 1 l+l+* l+n+k+",
"p+-.>.>._ : _ < [ [ [ l+4+n+k+p+-.)._ [+[ m+m+>.).[ '.'.'.).m+'.).: [ l+n+k+p+_ l+>.-.>.6+8+n+k+p+_ [ < [ * 6+6+1 p+1 7+n+| n+k+",
"p+-.>.: < |+|+< < [ [ m+[ n+k+p+'.~._ : 2+* 4+'.[ [ ).'.'.).4+'.).< l+6+n+k+p+_ 2+'.-.'.l+1 n+k+p+_ : < m+6+1 6+8+8+6+8+p+7+n+k+",
"p+-.>.: [ [ 2+< [ _ : [ [ n+k+p+_ ~.|+2+4+[ m+[ [ [ * '.'.* * '.).[ l+6+n+k+p+_ 1+|+>.).1 1 n+k+p+_ : [ [ 1 6+4+6+6+* 6+6+l+n+k+",
"p+-.'.: [ * * m+[ [ -.'.* n+k+p+_ [ < [ < 1+[ [ [ [ 6+).'.* l+'.[ 4+l+1 n+k+p+_ * 4+'.6+1 6+n+k+p+_ * 4+* 6+6+6+6+l+[ ).* m+n+k+",
"p+>.).: [ [ [ [ [ -.>.'.l+n+k+p+_ 4+< < < 1+m+[ [ l+1 6+'.4+m+[ [ * 1 p+n+k+p+_ | 6+'.6+1 6+n+k+p+_ 4+m+[ 6+6+| | * [ '.m+l+n+k+",
"p+'.< < < >.: < '.'.'.).).n+k+p+_ | 4+[ [ [ [ 4+* | 6+4+).[ : : [ | 8+p+n+k+p+_ 4+4+).* * m+n+k+p+_ 4+[ >.* * [ * 4+m+).* * n+k+",
"p+_ [ < [ '.[ m+).'.'.).).n+k+p+_ l+4+[ [ 4+n+* l+* 4+[ : _ : [ 4+6+1 l+n+k+p+_ 4+m+m+m+>.).n+k+p+_ 4+[ '.[ l+* m+[ [ ~.* l+n+k+",
"p+_ [ [ * ).4+4+m+[ '.'.).n+k+p+_ n+m+[ m+6+6+* 4+[ [ [ [ [ l+l+* 6+8+n+n+k+p+_ [ [ [ >.'.!.n+k+p+_ }+_ '.m+6+l+[ [ [ m+* | n+k+",
"p+_ [+< m+~.4+[ [ [ '.'.).~.k+p+k+* n+n+n+n+n+n+n+n+n+n+n+n+n+n+n+n+n+k+k+k+p+_ [ [ '.'.'.!.n+k+p+_ _ _ ).m+* * [ [ 4+4+6+| n+k+",
"p+_ [+< [ m+4+m+m+[ '.'.'.~.k+p+p+k+k+k+k+k+k+k+k+k+k+k+k+k+k+k+k+k+k+k+p+p+p+_ m+4+).'.).6+n+k+p+_ |+|+|+2+4+4+>.[ l+* * * n+k+",
"p+_ : [ [ [ m+[ * l+'.).'.~.k+p+p+p+p+p+p+p+p+p+p+p+p+p+p+p+p+p+p+p+p+p+p+p+p+_ * | ).).!.| n+k+p+_ [ [ < < [ >.'.l+6+6+1 | n+k+",
"p+_ < |+[ < [ l+6+6+'.~.'.~.k+p+*.*.*._ _ _ -.*.*._ * k+p+_ *.*.-.-._ _ * k+p+_ [ 4+).!.~.7+n+k+p+_ < [ : : [ '.'.* | 6+6+* n+k+",
"p+_ : : < < [ * l+* '.).'.~.k+p+*.-.-.-.< < >.-.-.-.n+k+p+_ -.-.>.'.* 6+n+k+p+_ [ [ !.!.l+| n+k+p+_ < [ : : [ '.'.* * * 4+[ n+k+",
"p+_ < [ 4+* * l+* l+'.).'.~.k+p+-.>.'.: < < '.>.>.>.n+k+p+_ >.-.[ [ < m+n+k+p+_ < [ l+~.n+l+n+k+p+_ [ [ : : m+'.).'.[ m+[ [ n+k+",
"p+_ * | * [ | 8+n+l+'.).~.n+k+p+-.>.'.[ [ m+'.>.>.'.n+k+p+_ _ '.[ * * l+n+k+p+_ m+[ 4+l+* | n+k+p+_ [ [ : [ * '.1 '.'.m+l+l+n+k+",
"p+_ * 2+[ 2+l+1 n+6+'.).6+n+k+p+_ >.'.[ 4+l+[ '.>.).n+k+p+_ _ [ 4+n+6+).n+k+p+_ [ [ 4+6+7+| n+k+p+_ < [ [ [ 7+'.6+).).| n+n+n+k+",
"p+_ 4+[ < [ n+n+7+| ).~.| n+k+p+_ >.'.* 6+* : ~.'.m+n+k+p+_ _ [ | 6+* ).~.k+p+* n+n+n+n+n+n+n+k+p+_ [ [ [ [ 6+'.| ~.~.l+n+| n+k+",
"p+* n+n+n+n+n+n+n+n+n+n+n+n+k+p+_ >.'.m+6+4+< [ [ l+n+k+p+* n+n+n+n+n+~.~.k+p+k+k+k+k+k+k+k+k+k+p+* n+n+n+n+n+~.~.~.~.~.n+n+n+k+",
"p+k+k+k+k+k+k+k+k+k+k+k+k+k+k+p+_ '.).4+1 * [ [ [ l+n+k+p+k+k+k+k+k+k+k+k+k+p+p+p+p+p+p+p+p+p+p+p+k+k+k+k+k+k+k+k+k+k+k+k+k+k+k+",
"p+p+p+p+p+p+p+p+p+p+p+p+p+p+p+p+_ : < * 6+[ < [ m+* n+k+p+_ *.-.-.-.-._ _ _ k+p+_ *.*.*._ _ *.*.*.*._ _ _ * k+p+p+p+p+p+p+p+p+p+",
"_ -.*.*.*._ _ _ *.*.-.* k+p+p+p+* n+n+n+n+n+n+n+n+n+n+k+p+_ * >.>.>.).[ [ n+k+p+_ [ >.-.< [ -.-.-.-.n+n+* n+k+p+_ _ -.-.-.-._ _ ",
"|+>.>.'.'.* * * >.>.4+n+k+p+p+p+k+k+k+k+k+k+k+k+k+k+k+k+p+_ l+'.'.'.[ < [ n+k+p+_ 2+2+>.[ 2+>.>.>.'.| 7+| n+k+p+_ < : '.>.>.2+[ ",
": >.'.).~.4+* l+'.>.4+n+k+p+p+p+p+p+p+p+p+p+p+p+p+p+p+p+p+_ 6+'.).l+[ [ | n+k+p+_ [ [ >.< 4+4+>.'.[ 6+| m+n+k+p+_ * [ [ '.'.[ < ",
"< '.'.~.[ [ * * '.>.* n+k+p+_ _ *.*.-.*.*.-._ *.*.-.* k+p+_ * * ).* 4+* 1 n+k+p+_ [ [ < m+4+| '.* [ l+l+6+n+k+p+_ 4+[ [ m+m+[ [ ",
"m+'.).[ [ [ l+* ).'.* n+k+p+_ 4+-.-.>.-.-.>.< -.-.>.n+k+p+_ n+n+n+n+n+n+n+n+k+p+* n+n+n+n+n+n+n+n+n+n+n+n+n+k+p+_ 4+[ 1+4+[ [ m+",
"* '.).: [ l+* * ~.'.4+n+k+p+_ < >.>.[ >.>.'.'.>.'.'.n+k+p+k+k+k+k+k+k+k+k+k+k+p+k+k+k+k+k+k+k+k+k+k+k+k+k+k+k+p+_ [ |+[ [ [ m+* ",
"4+'.[ < m+* * * m+'.[ n+k+p+_ : >.>.[ >.>.[ '.'.).~.n+k+p+p+p+p+p+p+p+p+p+p+p+p+p+p+p+p+p+p+p+p+p+p+p+p+p+p+p+p+_ [+_ < [ m+4+4+",
"4+'.m+l+| * l+* [ ).m+n+k+p+_ : >.'.* >.'.m+>.[ ~.~.n+k+p+_ _ -.-.*.*.*.*.*.*.-.-.-.*.*.*.*.*.*.*.*.*.-.* k+p+p+_ _ _ _ [ 4+l+l+",
"* ).6+6+6+6+'.* m+[ m+n+k+p+_ _ >.[ 6+'.'.m+).: ~.| n+k+p+_ * |+< : >.>.>.>.'.).).).'.>.>.>.>.>.>.>.>.'.n+k+p+p+_ _ _ : [ * * * ",
"m+~.n+6+l+* ).'.4+m+m+n+k+p+_ : [ 4+4+'.4+[ ).< | 7+n+k+p+_ 2+: _ : >.'.>.>.).[ m+[ '.>.>.>.'.>.[ >.'.).n+k+p+p+_ |+>.< < [ m+m+",
"* 6+n+l+[ [ ).'.m+[ [ n+k+p+_ [ [ 4+* ).[ [ : m+| | n+k+p+_ _ _ _ _ >._ >.'.).< [ [ [ '.>.>.).>.: >.).).n+k+p+p+_ |+>.: _ _ < m+",
"6+6+| * [ [ ).).* 4+[ n+k+p+_ |+[ [ 2+[ [ : _ [ 6+| n+k+p+_ _ _ _ < )._ >.).< [ m+m+[ m+>.'.).>.-.>.).* n+k+p+p+*.< >.>.< [ [ m+",
"6+| l+[ [ [ ~.).n+| m+n+k+p+_ < |+[ [ [ [ : _ m+n+| n+k+p+_ _ _ : < [ < >.).[ [ m+* * l+>.).[ '.).>.).l+n+k+p+p+*.-.>.'.[ [ [ [ ",
"l+l+4+[ [ [ m+~.6+| m+n+k+p+_ |+< < m+[ < [ [ | n+| n+k+p+_ : _ _ [ 4+* >.* 4+* 6+n+6+6+>.).[ ).4+'.).l+n+k+p+p+*.-.'.'.: [ * 6+",
"* * 4+[ [ * 4+| 6+l+[ n+k+p+_ [ : : 4+* l+7+l+l+6+* n+k+p+_ : < : l+6+| '.* * | 1 l+6+6+'.6+l+4+m+[ ~.m+n+k+p+p+*.-.'.'.>.[ * * ",
"* * * m+* 6+1 1 6+4+< n+k+p+_ : < 2+4+* | 6+* m+* l+n+k+p+_ m+[ l+6+1 6+| * [ * 6+6+6+6+6+| * [ [ [ [ [ n+k+p+p+*.>.>.'.'.[ * * ",
"n+n+n+n+n+n+n+n+n+n+n+n+k+p+* n+n+n+n+n+n+n+n+n+n+n+n+k+p+* n+n+n+n+n+n+n+n+n+n+n+n+n+n+n+n+n+n+n+n+n+n+n+k+p+p+* n+n+n+n+n+n+n+"};
